<?xml version="1.0" encoding="utf-8" standalone="no"?>
<!DOCTYPE svg PUBLIC "-//W3C//DTD SVG 1.1//EN"
  "http://www.w3.org/Graphics/SVG/1.1/DTD/svg11.dtd">
<svg xmlns:xlink="http://www.w3.org/1999/xlink" width="568.8pt" height="612.336563pt" viewBox="0 0 568.8 612.336563" xmlns="http://www.w3.org/2000/svg" version="1.1">
 <metadata>
  <rdf:RDF xmlns:dc="http://purl.org/dc/elements/1.1/" xmlns:cc="http://creativecommons.org/ns#" xmlns:rdf="http://www.w3.org/1999/02/22-rdf-syntax-ns#">
   <cc:Work>
    <dc:type rdf:resource="http://purl.org/dc/dcmitype/StillImage"/>
    <dc:date>2024-11-27T16:19:01.165794</dc:date>
    <dc:format>image/svg+xml</dc:format>
    <dc:creator>
     <cc:Agent>
      <dc:title>Matplotlib v3.9.2, https://matplotlib.org/</dc:title>
     </cc:Agent>
    </dc:creator>
   </cc:Work>
  </rdf:RDF>
 </metadata>
 <defs>
  <style type="text/css">*{stroke-linejoin: round; stroke-linecap: butt}</style>
 </defs>
 <g id="figure_1">
  <g id="patch_1">
   <path d="M 0 612.336563 
L 568.8 612.336563 
L 568.8 0 
L 0 0 
z
" style="fill: #ffffff"/>
  </g>
  <g id="patch_2">
   <path d="M 7.2 605.136562 
L 561.6 605.136562 
L 561.6 50.736562 
L 7.2 50.736562 
z
" style="fill: #f5f5f5"/>
  </g>
  <g id="axes_1">
   <g id="Path3DCollection_1">
    <defs>
     <path id="m3653db8219" d="M 0 10 
C 2.652031 10 5.195799 8.946337 7.071068 7.071068 
C 8.946337 5.195799 10 2.652031 10 0 
C 10 -2.652031 8.946337 -5.195799 7.071068 -7.071068 
C 5.195799 -8.946337 2.652031 -10 0 -10 
C -2.652031 -10 -5.195799 -8.946337 -7.071068 -7.071068 
C -8.946337 -5.195799 -10 -2.652031 -10 0 
C -10 2.652031 -8.946337 5.195799 -7.071068 7.071068 
C -5.195799 8.946337 -2.652031 10 0 10 
z
" style="stroke: #000000; stroke-opacity: 0.9"/>
    </defs>
    <g clip-path="url(#pc80edff772)">
     <use xlink:href="#m3653db8219" x="327.132644" y="412.158298" style="fill: #ff0000; fill-opacity: 0.9; stroke: #000000; stroke-opacity: 0.9"/>
    </g>
   </g>
   <g id="text_1">
    <!-- 3D визуализация молекулы -->
    <g transform="translate(139.328437 20.736562) scale(0.18 -0.18)">
     <defs>
      <path id="DejaVuSans-Bold-33" d="M 2981 2516 
Q 3453 2394 3698 2092 
Q 3944 1791 3944 1325 
Q 3944 631 3412 270 
Q 2881 -91 1863 -91 
Q 1503 -91 1142 -33 
Q 781 25 428 141 
L 428 1069 
Q 766 900 1098 814 
Q 1431 728 1753 728 
Q 2231 728 2486 893 
Q 2741 1059 2741 1369 
Q 2741 1688 2480 1852 
Q 2219 2016 1709 2016 
L 1228 2016 
L 1228 2791 
L 1734 2791 
Q 2188 2791 2409 2933 
Q 2631 3075 2631 3366 
Q 2631 3634 2415 3781 
Q 2200 3928 1806 3928 
Q 1516 3928 1219 3862 
Q 922 3797 628 3669 
L 628 4550 
Q 984 4650 1334 4700 
Q 1684 4750 2022 4750 
Q 2931 4750 3382 4451 
Q 3834 4153 3834 3553 
Q 3834 3144 3618 2883 
Q 3403 2622 2981 2516 
z
" transform="scale(0.015625)"/>
      <path id="DejaVuSans-Bold-44" d="M 1791 3756 
L 1791 909 
L 2222 909 
Q 2959 909 3348 1275 
Q 3738 1641 3738 2338 
Q 3738 3031 3350 3393 
Q 2963 3756 2222 3756 
L 1791 3756 
z
M 588 4666 
L 1856 4666 
Q 2919 4666 3439 4514 
Q 3959 4363 4331 4000 
Q 4659 3684 4818 3271 
Q 4978 2859 4978 2338 
Q 4978 1809 4818 1395 
Q 4659 981 4331 666 
Q 3956 303 3431 151 
Q 2906 0 1856 0 
L 588 0 
L 588 4666 
z
" transform="scale(0.015625)"/>
      <path id="DejaVuSans-Bold-20" transform="scale(0.015625)"/>
      <path id="DejaVuSans-Bold-432" d="M 2184 2181 
Q 2378 2181 2478 2261 
Q 2578 2341 2578 2497 
Q 2578 2653 2478 2731 
Q 2378 2809 2184 2809 
L 1656 2809 
L 1656 2181 
L 2184 2181 
z
M 2222 700 
Q 2469 700 2594 798 
Q 2719 897 2719 1094 
Q 2719 1288 2594 1384 
Q 2469 1481 2222 1481 
L 1656 1481 
L 1656 700 
L 2222 700 
z
M 538 3500 
L 2141 3500 
Q 2919 3500 3267 3279 
Q 3616 3059 3616 2575 
Q 3616 2319 3487 2139 
Q 3359 1959 3119 1872 
Q 3428 1788 3598 1561 
Q 3769 1334 3769 1003 
Q 3769 497 3403 248 
Q 3038 0 2294 0 
L 538 0 
L 538 3500 
z
" transform="scale(0.015625)"/>
      <path id="DejaVuSans-Bold-438" d="M 3947 3500 
L 3947 0 
L 2828 0 
L 2828 1863 
L 1700 0 
L 538 0 
L 538 3500 
L 1656 3500 
L 1656 1638 
L 2784 3500 
L 3947 3500 
z
" transform="scale(0.015625)"/>
      <path id="DejaVuSans-Bold-437" d="M 900 2181 
L 1413 2181 
Q 1872 2181 2039 2281 
Q 2206 2381 2206 2519 
Q 2206 2841 1469 2841 
Q 853 2841 472 2625 
L 472 3434 
Q 1041 3584 1713 3584 
Q 2500 3584 2862 3361 
Q 3225 3138 3225 2666 
Q 3225 2047 2541 1888 
Q 3313 1697 3313 994 
Q 3313 453 2888 181 
Q 2463 -91 1553 -91 
Q 875 -91 313 84 
L 313 947 
Q 1013 653 1428 653 
Q 1884 653 2089 776 
Q 2294 900 2294 1056 
Q 2294 1491 1394 1491 
L 900 1491 
L 900 2181 
z
" transform="scale(0.015625)"/>
      <path id="DejaVuSans-Bold-443" d="M 78 3500 
L 1197 3500 
L 2138 1125 
L 2938 3500 
L 4056 3500 
L 2584 -331 
Q 2363 -916 2067 -1148 
Q 1772 -1381 1288 -1381 
L 641 -1381 
L 641 -647 
L 991 -647 
Q 1275 -647 1404 -556 
Q 1534 -466 1606 -231 
L 1638 -134 
L 78 3500 
z
" transform="scale(0.015625)"/>
      <path id="DejaVuSans-Bold-430" d="M 2106 1575 
Q 1756 1575 1579 1456 
Q 1403 1338 1403 1106 
Q 1403 894 1545 773 
Q 1688 653 1941 653 
Q 2256 653 2472 879 
Q 2688 1106 2688 1447 
L 2688 1575 
L 2106 1575 
z
M 3816 1997 
L 3816 0 
L 2688 0 
L 2688 519 
Q 2463 200 2181 54 
Q 1900 -91 1497 -91 
Q 953 -91 614 226 
Q 275 544 275 1050 
Q 275 1666 698 1953 
Q 1122 2241 2028 2241 
L 2688 2241 
L 2688 2328 
Q 2688 2594 2478 2717 
Q 2269 2841 1825 2841 
Q 1466 2841 1156 2769 
Q 847 2697 581 2553 
L 581 3406 
Q 941 3494 1303 3539 
Q 1666 3584 2028 3584 
Q 2975 3584 3395 3211 
Q 3816 2838 3816 1997 
z
" transform="scale(0.015625)"/>
      <path id="DejaVuSans-Bold-43b" d="M 353 0 
L 353 800 
Q 906 913 1031 1278 
Q 1125 1556 1125 2928 
L 1125 3500 
L 4150 3500 
L 4150 0 
L 3031 0 
L 3031 2700 
L 2244 2700 
L 2244 2584 
Q 2244 1213 2028 813 
Q 1591 0 353 0 
z
" transform="scale(0.015625)"/>
      <path id="DejaVuSans-Bold-446" d="M 3666 -884 
L 3666 0 
L 538 0 
L 538 3500 
L 1656 3500 
L 1656 800 
L 2766 800 
L 2766 3500 
L 3884 3500 
L 3884 800 
L 4466 800 
L 4466 -884 
L 3666 -884 
z
" transform="scale(0.015625)"/>
      <path id="DejaVuSans-Bold-44f" d="M 1528 2394 
Q 1528 2169 1651 2069 
Q 1775 1969 2059 1969 
L 2463 1969 
L 2463 2816 
L 2059 2816 
Q 1775 2816 1651 2719 
Q 1528 2622 1528 2394 
z
M 197 0 
L 1113 1497 
Q 847 1650 650 1917 
Q 453 2184 453 2516 
Q 453 3013 789 3256 
Q 1125 3500 1878 3500 
L 3581 3500 
L 3581 0 
L 2463 0 
L 2463 1278 
L 2069 1278 
L 1288 0 
L 197 0 
z
" transform="scale(0.015625)"/>
      <path id="DejaVuSans-Bold-43c" d="M 538 3500 
L 1825 3500 
L 2613 1750 
L 3400 3500 
L 4691 3500 
L 4691 0 
L 3575 0 
L 3575 1984 
L 2984 672 
L 2250 672 
L 1656 1984 
L 1656 0 
L 538 0 
L 538 3500 
z
" transform="scale(0.015625)"/>
      <path id="DejaVuSans-Bold-43e" d="M 2203 2784 
Q 1831 2784 1636 2517 
Q 1441 2250 1441 1747 
Q 1441 1244 1636 976 
Q 1831 709 2203 709 
Q 2569 709 2762 976 
Q 2956 1244 2956 1747 
Q 2956 2250 2762 2517 
Q 2569 2784 2203 2784 
z
M 2203 3584 
Q 3106 3584 3614 3096 
Q 4122 2609 4122 1747 
Q 4122 884 3614 396 
Q 3106 -91 2203 -91 
Q 1297 -91 786 396 
Q 275 884 275 1747 
Q 275 2609 786 3096 
Q 1297 3584 2203 3584 
z
" transform="scale(0.015625)"/>
      <path id="DejaVuSans-Bold-435" d="M 4031 1759 
L 4031 1441 
L 1416 1441 
Q 1456 1047 1700 850 
Q 1944 653 2381 653 
Q 2734 653 3104 758 
Q 3475 863 3866 1075 
L 3866 213 
Q 3469 63 3072 -14 
Q 2675 -91 2278 -91 
Q 1328 -91 801 392 
Q 275 875 275 1747 
Q 275 2603 792 3093 
Q 1309 3584 2216 3584 
Q 3041 3584 3536 3087 
Q 4031 2591 4031 1759 
z
M 2881 2131 
Q 2881 2450 2695 2645 
Q 2509 2841 2209 2841 
Q 1884 2841 1681 2658 
Q 1478 2475 1428 2131 
L 2881 2131 
z
" transform="scale(0.015625)"/>
      <path id="DejaVuSans-Bold-43a" d="M 538 3500 
L 1656 3500 
L 1656 2316 
L 2903 3500 
L 4128 3500 
L 2634 2078 
L 4250 0 
L 3094 0 
L 1972 1447 
L 1656 1147 
L 1656 0 
L 538 0 
L 538 3500 
z
" transform="scale(0.015625)"/>
      <path id="DejaVuSans-Bold-44b" d="M 4154 3500 
L 5272 3500 
L 5272 0 
L 4154 0 
L 4154 3500 
z
M 2719 1094 
Q 2719 1291 2594 1388 
Q 2472 1481 2222 1481 
L 1656 1481 
L 1656 700 
L 2222 700 
Q 2469 700 2594 800 
Q 2719 897 2719 1094 
z
M 538 3500 
L 1656 3500 
L 1656 2172 
L 2291 2172 
Q 3000 2172 3381 1913 
Q 3766 1650 3766 1081 
Q 3766 513 3381 256 
Q 3000 0 2291 0 
L 538 0 
L 538 3500 
z
" transform="scale(0.015625)"/>
     </defs>
     <use xlink:href="#DejaVuSans-Bold-33"/>
     <use xlink:href="#DejaVuSans-Bold-44" x="69.580078"/>
     <use xlink:href="#DejaVuSans-Bold-20" x="152.587891"/>
     <use xlink:href="#DejaVuSans-Bold-432" x="187.402344"/>
     <use xlink:href="#DejaVuSans-Bold-438" x="250.683594"/>
     <use xlink:href="#DejaVuSans-Bold-437" x="320.751953"/>
     <use xlink:href="#DejaVuSans-Bold-443" x="378.857422"/>
     <use xlink:href="#DejaVuSans-Bold-430" x="444.042969"/>
     <use xlink:href="#DejaVuSans-Bold-43b" x="511.523438"/>
     <use xlink:href="#DejaVuSans-Bold-438" x="584.765625"/>
     <use xlink:href="#DejaVuSans-Bold-437" x="654.833984"/>
     <use xlink:href="#DejaVuSans-Bold-430" x="712.939453"/>
     <use xlink:href="#DejaVuSans-Bold-446" x="780.419922"/>
     <use xlink:href="#DejaVuSans-Bold-438" x="854.541016"/>
     <use xlink:href="#DejaVuSans-Bold-44f" x="924.609375"/>
     <use xlink:href="#DejaVuSans-Bold-20" x="988.818359"/>
     <use xlink:href="#DejaVuSans-Bold-43c" x="1023.632812"/>
     <use xlink:href="#DejaVuSans-Bold-43e" x="1105.371094"/>
     <use xlink:href="#DejaVuSans-Bold-43b" x="1174.072266"/>
     <use xlink:href="#DejaVuSans-Bold-435" x="1247.314453"/>
     <use xlink:href="#DejaVuSans-Bold-43a" x="1315.136719"/>
     <use xlink:href="#DejaVuSans-Bold-443" x="1383.007812"/>
     <use xlink:href="#DejaVuSans-Bold-43b" x="1448.193359"/>
     <use xlink:href="#DejaVuSans-Bold-44b" x="1521.435547"/>
    </g>
   </g>
   <g id="Path3DCollection_2">
    <defs>
     <path id="m4f057e4d70" d="M 0 10 
C 2.652031 10 5.195799 8.946337 7.071068 7.071068 
C 8.946337 5.195799 10 2.652031 10 0 
C 10 -2.652031 8.946337 -5.195799 7.071068 -7.071068 
C 5.195799 -8.946337 2.652031 -10 0 -10 
C -2.652031 -10 -5.195799 -8.946337 -7.071068 -7.071068 
C -8.946337 -5.195799 -10 -2.652031 -10 0 
C -10 2.652031 -8.946337 5.195799 -7.071068 7.071068 
C -5.195799 8.946337 -2.652031 10 0 10 
z
" style="stroke: #000000; stroke-opacity: 0.9"/>
    </defs>
    <g clip-path="url(#pc80edff772)">
     <use xlink:href="#m4f057e4d70" x="236.143562" y="404.473511" style="fill: #555555; fill-opacity: 0.9; stroke: #000000; stroke-opacity: 0.9"/>
    </g>
   </g>
   <g id="Path3DCollection_3">
    <g clip-path="url(#pc80edff772)">
     <use xlink:href="#m4f057e4d70" x="265.606622" y="362.700578" style="fill: #555555; fill-opacity: 0.9; stroke: #000000; stroke-opacity: 0.9"/>
    </g>
   </g>
   <g id="legend_1">
    <g id="patch_3">
     <path d="M 505.35375 113.177813 
L 553.2 113.177813 
Q 555.6 113.177813 555.6 110.777813 
L 555.6 59.136562 
Q 555.6 56.736562 553.2 56.736562 
L 505.35375 56.736562 
Q 502.95375 56.736562 502.95375 59.136562 
L 502.95375 110.777813 
Q 502.95375 113.177813 505.35375 113.177813 
z
" style="fill: #ffffff; opacity: 0.8; stroke: #000000; stroke-linejoin: miter"/>
    </g>
    <g id="line2d_1">
     <path d="M 507.75375 66.454688 
L 519.75375 66.454688 
L 531.75375 66.454688 
" style="fill: none; stroke: #ffffff; stroke-width: 1.5; stroke-linecap: square"/>
     <defs>
      <path id="m8628351af0" d="M 0 7 
C 1.856422 7 3.637059 6.262436 4.949747 4.949747 
C 6.262436 3.637059 7 1.856422 7 0 
C 7 -1.856422 6.262436 -3.637059 4.949747 -4.949747 
C 3.637059 -6.262436 1.856422 -7 0 -7 
C -1.856422 -7 -3.637059 -6.262436 -4.949747 -4.949747 
C -6.262436 -3.637059 -7 -1.856422 -7 0 
C -7 1.856422 -6.262436 3.637059 -4.949747 4.949747 
C -3.637059 6.262436 -1.856422 7 0 7 
z
" style="stroke: #000000"/>
     </defs>
     <g>
      <use xlink:href="#m8628351af0" x="519.75375" y="66.454688" style="fill: #ffffff; stroke: #000000"/>
     </g>
    </g>
    <g id="text_2">
     <!-- H -->
     <g transform="translate(541.35375 70.654688) scale(0.12 -0.12)">
      <defs>
       <path id="DejaVuSans-48" d="M 628 4666 
L 1259 4666 
L 1259 2753 
L 3553 2753 
L 3553 4666 
L 4184 4666 
L 4184 0 
L 3553 0 
L 3553 2222 
L 1259 2222 
L 1259 0 
L 628 0 
L 628 4666 
z
" transform="scale(0.015625)"/>
      </defs>
      <use xlink:href="#DejaVuSans-48"/>
     </g>
    </g>
    <g id="line2d_2">
     <path d="M 507.75375 84.068438 
L 519.75375 84.068438 
L 531.75375 84.068438 
" style="fill: none; stroke: #ffffff; stroke-width: 1.5; stroke-linecap: square"/>
     <defs>
      <path id="md1d0345c8d" d="M 0 7 
C 1.856422 7 3.637059 6.262436 4.949747 4.949747 
C 6.262436 3.637059 7 1.856422 7 0 
C 7 -1.856422 6.262436 -3.637059 4.949747 -4.949747 
C 3.637059 -6.262436 1.856422 -7 0 -7 
C -1.856422 -7 -3.637059 -6.262436 -4.949747 -4.949747 
C -6.262436 -3.637059 -7 -1.856422 -7 0 
C -7 1.856422 -6.262436 3.637059 -4.949747 4.949747 
C -3.637059 6.262436 -1.856422 7 0 7 
z
" style="stroke: #000000"/>
     </defs>
     <g>
      <use xlink:href="#md1d0345c8d" x="519.75375" y="84.068438" style="fill: #ff0000; stroke: #000000"/>
     </g>
    </g>
    <g id="text_3">
     <!-- O -->
     <g transform="translate(541.35375 88.268438) scale(0.12 -0.12)">
      <defs>
       <path id="DejaVuSans-4f" d="M 2522 4238 
Q 1834 4238 1429 3725 
Q 1025 3213 1025 2328 
Q 1025 1447 1429 934 
Q 1834 422 2522 422 
Q 3209 422 3611 934 
Q 4013 1447 4013 2328 
Q 4013 3213 3611 3725 
Q 3209 4238 2522 4238 
z
M 2522 4750 
Q 3503 4750 4090 4092 
Q 4678 3434 4678 2328 
Q 4678 1225 4090 567 
Q 3503 -91 2522 -91 
Q 1538 -91 948 565 
Q 359 1222 359 2328 
Q 359 3434 948 4092 
Q 1538 4750 2522 4750 
z
" transform="scale(0.015625)"/>
      </defs>
      <use xlink:href="#DejaVuSans-4f"/>
     </g>
    </g>
    <g id="line2d_3">
     <path d="M 507.75375 101.682188 
L 519.75375 101.682188 
L 531.75375 101.682188 
" style="fill: none; stroke: #ffffff; stroke-width: 1.5; stroke-linecap: square"/>
     <defs>
      <path id="mc5cfcf955a" d="M 0 7 
C 1.856422 7 3.637059 6.262436 4.949747 4.949747 
C 6.262436 3.637059 7 1.856422 7 0 
C 7 -1.856422 6.262436 -3.637059 4.949747 -4.949747 
C 3.637059 -6.262436 1.856422 -7 0 -7 
C -1.856422 -7 -3.637059 -6.262436 -4.949747 -4.949747 
C -6.262436 -3.637059 -7 -1.856422 -7 0 
C -7 1.856422 -6.262436 3.637059 -4.949747 4.949747 
C -3.637059 6.262436 -1.856422 7 0 7 
z
" style="stroke: #000000"/>
     </defs>
     <g>
      <use xlink:href="#mc5cfcf955a" x="519.75375" y="101.682188" style="fill: #555555; stroke: #000000"/>
     </g>
    </g>
    <g id="text_4">
     <!-- C -->
     <g transform="translate(541.35375 105.882188) scale(0.12 -0.12)">
      <defs>
       <path id="DejaVuSans-43" d="M 4122 4306 
L 4122 3641 
Q 3803 3938 3442 4084 
Q 3081 4231 2675 4231 
Q 1875 4231 1450 3742 
Q 1025 3253 1025 2328 
Q 1025 1406 1450 917 
Q 1875 428 2675 428 
Q 3081 428 3442 575 
Q 3803 722 4122 1019 
L 4122 359 
Q 3791 134 3420 21 
Q 3050 -91 2638 -91 
Q 1578 -91 968 557 
Q 359 1206 359 2328 
Q 359 3453 968 4101 
Q 1578 4750 2638 4750 
Q 3056 4750 3426 4639 
Q 3797 4528 4122 4306 
z
" transform="scale(0.015625)"/>
      </defs>
      <use xlink:href="#DejaVuSans-43"/>
     </g>
    </g>
   </g>
   <g id="Path3DCollection_4">
    <g clip-path="url(#pc80edff772)">
     <use xlink:href="#m4f057e4d70" x="310.991216" y="367.595758" style="fill: #555555; fill-opacity: 0.9; stroke: #000000; stroke-opacity: 0.9"/>
    </g>
   </g>
   <g id="Path3DCollection_5">
    <defs>
     <path id="md73ab437b8" d="M 0 10 
C 2.652031 10 5.195799 8.946337 7.071068 7.071068 
C 8.946337 5.195799 10 2.652031 10 0 
C 10 -2.652031 8.946337 -5.195799 7.071068 -7.071068 
C 5.195799 -8.946337 2.652031 -10 0 -10 
C -2.652031 -10 -5.195799 -8.946337 -7.071068 -7.071068 
C -8.946337 -5.195799 -10 -2.652031 -10 0 
C -10 2.652031 -8.946337 5.195799 -7.071068 7.071068 
C -5.195799 8.946337 -2.652031 10 0 10 
z
" style="stroke: #000000; stroke-opacity: 0.9"/>
    </defs>
    <g clip-path="url(#pc80edff772)">
     <use xlink:href="#md73ab437b8" x="212.933846" y="314.654875" style="fill: #ffffff; fill-opacity: 0.9; stroke: #000000; stroke-opacity: 0.9"/>
    </g>
   </g>
   <g id="Path3DCollection_6">
    <g clip-path="url(#pc80edff772)">
     <use xlink:href="#m4f057e4d70" x="248.35932" y="317.828673" style="fill: #555555; fill-opacity: 0.9; stroke: #000000; stroke-opacity: 0.9"/>
    </g>
   </g>
   <g id="Path3DCollection_7">
    <g clip-path="url(#pc80edff772)">
     <use xlink:href="#m4f057e4d70" x="338.498202" y="328.094273" style="fill: #555555; fill-opacity: 0.9; stroke: #000000; stroke-opacity: 0.9"/>
    </g>
   </g>
   <g id="Path3DCollection_8">
    <g clip-path="url(#pc80edff772)">
     <use xlink:href="#md73ab437b8" x="356.760941" y="408.887936" style="fill: #ffffff; fill-opacity: 0.9; stroke: #000000; stroke-opacity: 0.9"/>
    </g>
   </g>
   <g id="Path3DCollection_9">
    <g clip-path="url(#pc80edff772)">
     <use xlink:href="#m4f057e4d70" x="387.653674" y="332.210612" style="fill: #555555; fill-opacity: 0.9; stroke: #000000; stroke-opacity: 0.9"/>
    </g>
   </g>
   <g id="Path3DCollection_10">
    <g clip-path="url(#pc80edff772)">
     <use xlink:href="#m4f057e4d70" x="274.48371" y="277.188977" style="fill: #555555; fill-opacity: 0.9; stroke: #000000; stroke-opacity: 0.9"/>
    </g>
   </g>
   <g id="Path3DCollection_11">
    <g clip-path="url(#pc80edff772)">
     <use xlink:href="#m4f057e4d70" x="319.523595" y="283.554136" style="fill: #555555; fill-opacity: 0.9; stroke: #000000; stroke-opacity: 0.9"/>
    </g>
   </g>
   <g id="Path3DCollection_12">
    <g clip-path="url(#pc80edff772)">
     <use xlink:href="#md73ab437b8" x="341.500701" y="253.0344" style="fill: #ffffff; fill-opacity: 0.9; stroke: #000000; stroke-opacity: 0.9"/>
    </g>
   </g>
   <g id="Path3DCollection_13">
    <g clip-path="url(#pc80edff772)">
     <use xlink:href="#md73ab437b8" x="299.085192" y="444.201624" style="fill: #ffffff; fill-opacity: 0.9; stroke: #000000; stroke-opacity: 0.9"/>
    </g>
   </g>
   <g id="Path3DCollection_14">
    <g clip-path="url(#pc80edff772)">
     <use xlink:href="#m4f057e4d70" x="253.342645" y="228.503916" style="fill: #555555; fill-opacity: 0.9; stroke: #000000; stroke-opacity: 0.9"/>
    </g>
   </g>
   <g id="Path3DCollection_15">
    <g clip-path="url(#pc80edff772)">
     <use xlink:href="#m3653db8219" x="287.318174" y="457.860672" style="fill: #ff0000; fill-opacity: 0.9; stroke: #000000; stroke-opacity: 0.9"/>
    </g>
   </g>
   <g id="Path3DCollection_16">
    <g clip-path="url(#pc80edff772)">
     <use xlink:href="#m4f057e4d70" x="225.406926" y="405.149354" style="fill: #555555; fill-opacity: 0.9; stroke: #000000; stroke-opacity: 0.9"/>
    </g>
   </g>
   <g id="Path3DCollection_17">
    <g clip-path="url(#pc80edff772)">
     <use xlink:href="#m3653db8219" x="398.72283" y="403.426875" style="fill: #ff0000; fill-opacity: 0.9; stroke: #000000; stroke-opacity: 0.9"/>
    </g>
   </g>
   <g id="Path3DCollection_18">
    <g clip-path="url(#pc80edff772)">
     <use xlink:href="#md73ab437b8" x="168.573265" y="358.903931" style="fill: #ffffff; fill-opacity: 0.9; stroke: #000000; stroke-opacity: 0.9"/>
    </g>
   </g>
   <g id="Path3DCollection_19">
    <g clip-path="url(#pc80edff772)">
     <use xlink:href="#md73ab437b8" x="195.375682" y="234.971769" style="fill: #ffffff; fill-opacity: 0.9; stroke: #000000; stroke-opacity: 0.9"/>
    </g>
   </g>
   <g id="Path3DCollection_20">
    <g clip-path="url(#pc80edff772)">
     <use xlink:href="#m4f057e4d70" x="406.146367" y="318.932751" style="fill: #555555; fill-opacity: 0.9; stroke: #000000; stroke-opacity: 0.9"/>
    </g>
   </g>
   <g id="Path3DCollection_21">
    <g clip-path="url(#pc80edff772)">
     <use xlink:href="#m4f057e4d70" x="221.788685" y="207.947005" style="fill: #555555; fill-opacity: 0.9; stroke: #000000; stroke-opacity: 0.9"/>
    </g>
   </g>
   <g id="Path3DCollection_22">
    <g clip-path="url(#pc80edff772)">
     <use xlink:href="#md73ab437b8" x="389.060352" y="422.527453" style="fill: #ffffff; fill-opacity: 0.9; stroke: #000000; stroke-opacity: 0.9"/>
    </g>
   </g>
   <g id="Path3DCollection_23">
    <g clip-path="url(#pc80edff772)">
     <use xlink:href="#m4f057e4d70" x="251.809274" y="430.894988" style="fill: #555555; fill-opacity: 0.9; stroke: #000000; stroke-opacity: 0.9"/>
    </g>
   </g>
   <g id="Path3DCollection_24">
    <g clip-path="url(#pc80edff772)">
     <use xlink:href="#m4f057e4d70" x="188.616739" y="378.563242" style="fill: #555555; fill-opacity: 0.9; stroke: #000000; stroke-opacity: 0.9"/>
    </g>
   </g>
   <g id="Path3DCollection_25">
    <g clip-path="url(#pc80edff772)">
     <use xlink:href="#md73ab437b8" x="330.323925" y="457.175935" style="fill: #ffffff; fill-opacity: 0.9; stroke: #000000; stroke-opacity: 0.9"/>
    </g>
   </g>
   <g id="Path3DCollection_26">
    <g clip-path="url(#pc80edff772)">
     <use xlink:href="#md73ab437b8" x="415.489554" y="241.32723" style="fill: #ffffff; fill-opacity: 0.9; stroke: #000000; stroke-opacity: 0.9"/>
    </g>
   </g>
   <g id="Path3DCollection_27">
    <g clip-path="url(#pc80edff772)">
     <use xlink:href="#m4f057e4d70" x="409.879808" y="355.588726" style="fill: #555555; fill-opacity: 0.9; stroke: #000000; stroke-opacity: 0.9"/>
    </g>
   </g>
   <g id="Path3DCollection_28">
    <g clip-path="url(#pc80edff772)">
     <use xlink:href="#m4f057e4d70" x="418.486382" y="269.069412" style="fill: #555555; fill-opacity: 0.9; stroke: #000000; stroke-opacity: 0.9"/>
    </g>
   </g>
   <g id="Path3DCollection_29">
    <g clip-path="url(#pc80edff772)">
     <use xlink:href="#m3653db8219" x="358.669682" y="448.141388" style="fill: #ff0000; fill-opacity: 0.9; stroke: #000000; stroke-opacity: 0.9"/>
    </g>
   </g>
   <g id="Path3DCollection_30">
    <g clip-path="url(#pc80edff772)">
     <use xlink:href="#md73ab437b8" x="239.512384" y="199.826372" style="fill: #ffffff; fill-opacity: 0.9; stroke: #000000; stroke-opacity: 0.9"/>
    </g>
   </g>
   <g id="Path3DCollection_31">
    <g clip-path="url(#pc80edff772)">
     <use xlink:href="#m4f057e4d70" x="241.913652" y="430.405879" style="fill: #555555; fill-opacity: 0.9; stroke: #000000; stroke-opacity: 0.9"/>
    </g>
   </g>
   <g id="Path3DCollection_32">
    <g clip-path="url(#pc80edff772)">
     <use xlink:href="#m4f057e4d70" x="176.68401" y="376.597558" style="fill: #555555; fill-opacity: 0.9; stroke: #000000; stroke-opacity: 0.9"/>
    </g>
   </g>
   <g id="Path3DCollection_33">
    <g clip-path="url(#pc80edff772)">
     <use xlink:href="#m4f057e4d70" x="425.550814" y="343.061248" style="fill: #555555; fill-opacity: 0.9; stroke: #000000; stroke-opacity: 0.9"/>
    </g>
   </g>
   <g id="Path3DCollection_34">
    <g clip-path="url(#pc80edff772)">
     <use xlink:href="#m4f057e4d70" x="272.289534" y="457.041664" style="fill: #555555; fill-opacity: 0.9; stroke: #000000; stroke-opacity: 0.9"/>
    </g>
   </g>
   <g id="Path3DCollection_35">
    <g clip-path="url(#pc80edff772)">
     <use xlink:href="#m4f057e4d70" x="204.294262" y="403.334233" style="fill: #555555; fill-opacity: 0.9; stroke: #000000; stroke-opacity: 0.9"/>
    </g>
   </g>
   <g id="Path3DCollection_36">
    <g clip-path="url(#pc80edff772)">
     <use xlink:href="#m4f057e4d70" x="434.286807" y="253.721329" style="fill: #555555; fill-opacity: 0.9; stroke: #000000; stroke-opacity: 0.9"/>
    </g>
   </g>
   <g id="Path3DCollection_37">
    <g clip-path="url(#pc80edff772)">
     <use xlink:href="#m4f057e4d70" x="351.419489" y="420.698126" style="fill: #555555; fill-opacity: 0.9; stroke: #000000; stroke-opacity: 0.9"/>
    </g>
   </g>
   <g id="Path3DCollection_38">
    <g clip-path="url(#pc80edff772)">
     <use xlink:href="#m4f057e4d70" x="429.179326" y="382.714491" style="fill: #555555; fill-opacity: 0.9; stroke: #000000; stroke-opacity: 0.9"/>
    </g>
   </g>
   <g id="Path3DCollection_39">
    <g clip-path="url(#pc80edff772)">
     <use xlink:href="#m4f057e4d70" x="135.475136" y="346.553115" style="fill: #555555; fill-opacity: 0.9; stroke: #000000; stroke-opacity: 0.9"/>
    </g>
   </g>
   <g id="Path3DCollection_40">
    <g clip-path="url(#pc80edff772)">
     <use xlink:href="#m4f057e4d70" x="437.395426" y="292.024122" style="fill: #555555; fill-opacity: 0.9; stroke: #000000; stroke-opacity: 0.9"/>
    </g>
   </g>
   <g id="Path3DCollection_41">
    <g clip-path="url(#pc80edff772)">
     <use xlink:href="#m4f057e4d70" x="310.641969" y="424.297285" style="fill: #555555; fill-opacity: 0.9; stroke: #000000; stroke-opacity: 0.9"/>
    </g>
   </g>
   <g id="Path3DCollection_42">
    <g clip-path="url(#pc80edff772)">
     <use xlink:href="#m4f057e4d70" x="386.676671" y="388.644547" style="fill: #555555; fill-opacity: 0.9; stroke: #000000; stroke-opacity: 0.9"/>
    </g>
   </g>
   <g id="Path3DCollection_43">
    <g clip-path="url(#pc80edff772)">
     <use xlink:href="#md73ab437b8" x="196.397146" y="403.112433" style="fill: #ffffff; fill-opacity: 0.9; stroke: #000000; stroke-opacity: 0.9"/>
    </g>
   </g>
   <g id="Path3DCollection_44">
    <g clip-path="url(#pc80edff772)">
     <use xlink:href="#m4f057e4d70" x="448.251724" y="197.447203" style="fill: #555555; fill-opacity: 0.9; stroke: #000000; stroke-opacity: 0.9"/>
    </g>
   </g>
   <g id="Path3DCollection_45">
    <g clip-path="url(#pc80edff772)">
     <use xlink:href="#md73ab437b8" x="174.123884" y="277.446112" style="fill: #ffffff; fill-opacity: 0.9; stroke: #000000; stroke-opacity: 0.9"/>
    </g>
   </g>
   <g id="Path3DCollection_46">
    <g clip-path="url(#pc80edff772)">
     <use xlink:href="#md73ab437b8" x="450.041486" y="281.916357" style="fill: #ffffff; fill-opacity: 0.9; stroke: #000000; stroke-opacity: 0.9"/>
    </g>
   </g>
   <g id="Path3DCollection_47">
    <g clip-path="url(#pc80edff772)">
     <use xlink:href="#m4f057e4d70" x="150.952149" y="304.274302" style="fill: #555555; fill-opacity: 0.9; stroke: #000000; stroke-opacity: 0.9"/>
    </g>
   </g>
   <g id="Path3DCollection_48">
    <g clip-path="url(#pc80edff772)">
     <use xlink:href="#md73ab437b8" x="382.267437" y="177.887932" style="fill: #ffffff; fill-opacity: 0.9; stroke: #000000; stroke-opacity: 0.9"/>
    </g>
   </g>
   <g id="Path3DCollection_49">
    <g clip-path="url(#pc80edff772)">
     <use xlink:href="#m4f057e4d70" x="305.469718" y="395.302797" style="fill: #555555; fill-opacity: 0.9; stroke: #000000; stroke-opacity: 0.9"/>
    </g>
   </g>
   <g id="Path3DCollection_50">
    <g clip-path="url(#pc80edff772)">
     <use xlink:href="#md73ab437b8" x="169.310023" y="320.645053" style="fill: #ffffff; fill-opacity: 0.9; stroke: #000000; stroke-opacity: 0.9"/>
    </g>
   </g>
   <g id="Path3DCollection_51">
    <g clip-path="url(#pc80edff772)">
     <use xlink:href="#m4f057e4d70" x="380.85087" y="360.461935" style="fill: #555555; fill-opacity: 0.9; stroke: #000000; stroke-opacity: 0.9"/>
    </g>
   </g>
   <g id="Path3DCollection_52">
    <g clip-path="url(#pc80edff772)">
     <use xlink:href="#m4f057e4d70" x="418.813027" y="176.696587" style="fill: #555555; fill-opacity: 0.9; stroke: #000000; stroke-opacity: 0.9"/>
    </g>
   </g>
   <g id="Path3DCollection_53">
    <g clip-path="url(#pc80edff772)">
     <use xlink:href="#md73ab437b8" x="272.830274" y="398.716108" style="fill: #ffffff; fill-opacity: 0.9; stroke: #000000; stroke-opacity: 0.9"/>
    </g>
   </g>
   <g id="Path3DCollection_54">
    <g clip-path="url(#pc80edff772)">
     <use xlink:href="#md73ab437b8" x="422.788466" y="200.355327" style="fill: #ffffff; fill-opacity: 0.9; stroke: #000000; stroke-opacity: 0.9"/>
    </g>
   </g>
   <g id="Path3DCollection_55">
    <g clip-path="url(#pc80edff772)">
     <use xlink:href="#md73ab437b8" x="409.418858" y="335.219214" style="fill: #ffffff; fill-opacity: 0.9; stroke: #000000; stroke-opacity: 0.9"/>
    </g>
   </g>
   <g id="Path3DCollection_56">
    <g clip-path="url(#pc80edff772)">
     <use xlink:href="#m4f057e4d70" x="340.162319" y="362.784161" style="fill: #555555; fill-opacity: 0.9; stroke: #000000; stroke-opacity: 0.9"/>
    </g>
   </g>
   <g id="Path3DCollection_57">
    <g clip-path="url(#pc80edff772)">
     <use xlink:href="#md73ab437b8" x="317.039027" y="257.144206" style="fill: #ffffff; fill-opacity: 0.9; stroke: #000000; stroke-opacity: 0.9"/>
    </g>
   </g>
   <g id="Path3DCollection_58">
    <g clip-path="url(#pc80edff772)">
     <use xlink:href="#m4f057e4d70" x="335.422142" y="330.09716" style="fill: #555555; fill-opacity: 0.9; stroke: #000000; stroke-opacity: 0.9"/>
    </g>
   </g>
   <g id="Path3DCollection_59">
    <g clip-path="url(#pc80edff772)">
     <use xlink:href="#md73ab437b8" x="378.021667" y="263.278895" style="fill: #ffffff; fill-opacity: 0.9; stroke: #000000; stroke-opacity: 0.9"/>
    </g>
   </g>
   <g id="Path3DCollection_60">
    <g clip-path="url(#pc80edff772)">
     <use xlink:href="#m4f057e4d70" x="343.007165" y="270.733353" style="fill: #555555; fill-opacity: 0.9; stroke: #000000; stroke-opacity: 0.9"/>
    </g>
   </g>
  </g>
 </g>
 <defs>
  <clipPath id="pc80edff772">
   <rect x="7.2" y="50.736562" width="554.4" height="554.4"/>
  </clipPath>
 </defs>
</svg>
